<svg xmlns="http://www.w3.org/2000/svg" viewBox="0 0 500 500"><g id="freepik--Floor--inject-218"><path d="M88,401.54c88.75,59.31,232.64,59.31,321.39,0s88.75-155.49,0-214.8-232.64-59.32-321.39,0S-.71,342.22,88,401.54Z" style="fill:#407BFF"></path><path d="M88,401.54c88.75,59.31,232.64,59.31,321.39,0s88.75-155.49,0-214.8-232.64-59.32-321.39,0S-.71,342.22,88,401.54Z" style="fill:#fff;opacity:0.7000000000000001"></path></g><g id="freepik--Shadows--inject-218"><path id="freepik--Shadow--inject-218" d="M167.51,290.16c-4.64,2.68-19.18,8.52-38.63,11.27a149.23,149.23,0,0,1-24.42,1.46,132.48,132.48,0,0,1-20.55-2.06C72.35,278,94.66,257.11,102.47,252.61l109.28-63.09,62.72,36.21a1.56,1.56,0,0,1,0,2.69Z" style="opacity:0.1"></path><path id="freepik--shadow--inject-218" d="M285.53,404.85c-7.25,4.17-29.95,13.29-60.32,17.59a233.06,233.06,0,0,1-38.12,2.28A206.62,206.62,0,0,1,155,421.49c-18-35.58,16.78-68.25,29-75.27l170.6-98.5,97.92,56.53a2.43,2.43,0,0,1,0,4.2Z" style="opacity:0.1"></path></g><g id="freepik--Ships--inject-218"><path d="M427.52,277.55,253.81,377.85V359.09c-7.25,4.18-29.95,13.29-60.32,17.59A232,232,0,0,1,155.37,379a206.58,206.58,0,0,1-32.08-3.22L137,385.25A133.42,133.42,0,0,0,208.27,409c35.86,1.24,59.08-6.18,74-14.78l160.33-92.58a13.68,13.68,0,0,0,6.52-8.93L456,261.13Z" style="fill:#37474f"></path><path d="M432.11,290.77c.78-3.61,3.71-7.88,6.55-9.52s4.49,0,3.7,3.58-3.71,7.88-6.54,9.52S431.32,294.39,432.11,290.77Z" style="fill:#e0e0e0"></path><path d="M433.83,293.5c-.15,0-.18,0-.2-.07-.17-.2-.36-.92-.06-2.34.7-3.2,3.37-7.11,5.84-8.54a2.59,2.59,0,0,1,1.24-.44c.14,0,.17,0,.19.06.17.21.37.93.06,2.35-.69,3.19-3.37,7.1-5.84,8.53A2.64,2.64,0,0,1,433.83,293.5Z" style="fill:#455a64"></path><path d="M415.86,299.94c.78-3.62,3.72-7.88,6.55-9.52s4.49,0,3.71,3.58-3.72,7.88-6.55,9.52S415.07,303.55,415.86,299.94Z" style="fill:#e0e0e0"></path><path d="M417.58,302.66c-.15,0-.18,0-.2-.06a3.33,3.33,0,0,1-.06-2.35c.7-3.19,3.37-7.1,5.84-8.53a2.7,2.7,0,0,1,1.24-.45c.15,0,.17,0,.2.07a3.25,3.25,0,0,1,0,2.34c-.69,3.2-3.37,7.11-5.83,8.54A2.62,2.62,0,0,1,417.58,302.66Z" style="fill:#455a64"></path><path d="M399.61,309.1c.79-3.62,3.72-7.88,6.55-9.52s4.49,0,3.71,3.58-3.72,7.88-6.55,9.52S398.83,312.72,399.61,309.1Z" style="fill:#e0e0e0"></path><path d="M401.33,311.82c-.15,0-.17,0-.2-.06a3.26,3.26,0,0,1-.05-2.34c.69-3.2,3.36-7.11,5.83-8.54a2.62,2.62,0,0,1,1.24-.44c.15,0,.18,0,.2.06a3.26,3.26,0,0,1,0,2.34c-.69,3.2-3.36,7.11-5.83,8.54A2.62,2.62,0,0,1,401.33,311.82Z" style="fill:#455a64"></path><path d="M253.81,359.09c-7.25,4.18-29.95,13.29-60.32,17.59A232,232,0,0,1,155.37,379a206.58,206.58,0,0,1-32.08-3.22c-18-35.58,16.78-68.25,29-75.28l44.68,25.79,31.57,18.23Z" style="fill:#fafafa"></path><path d="M248.57,359c-1.75.82-3.91,1.75-6.45,2.75l-89.83-51.86v-6.47Z" style="fill:#263238"></path><path d="M228.51,344.48l-31.57-18.23-44.68-25.79c-12.19,7-47,39.7-29,75.28A206.58,206.58,0,0,0,155.37,379a232,232,0,0,0,38.12-2.28c30.37-4.3,53.07-13.41,60.32-17.59ZM193.14,374.2a231.61,231.61,0,0,1-32.4,2.32q-2.64,0-5.31-.06a205.73,205.73,0,0,1-30.45-3c-8.41-17.7-2.73-34.1,3.61-44.84,7.17-12.13,17.62-21.4,23.7-25.29l43.4,25L248.57,359C239.59,363.13,220,370.4,193.14,374.2Z" style="fill:#fafafa"></path><path d="M228.51,344.48l-31.57-18.23-44.68-25.79c-12.19,7-47,39.7-29,75.28A206.58,206.58,0,0,0,155.37,379a232,232,0,0,0,38.12-2.28c30.37-4.3,53.07-13.41,60.32-17.59ZM193.14,374.2a231.61,231.61,0,0,1-32.4,2.32q-2.64,0-5.31-.06a205.73,205.73,0,0,1-30.45-3c-8.41-17.7-2.73-34.1,3.61-44.84,7.17-12.13,17.62-21.4,23.7-25.29l43.4,25L248.57,359C239.59,363.13,220,370.4,193.14,374.2Z" style="fill:#455a64"></path><path d="M242.12,361.7a219.92,219.92,0,0,1-49,12.5,231.63,231.63,0,0,1-32.4,2.33c-1.76,0-3.53,0-5.31-.07a204.39,204.39,0,0,1-30.45-3,42.75,42.75,0,0,1-4.1-15.17c-.91-11.69,3.23-22.09,7.71-29.66,7.17-12.14,17.62-21.41,23.7-25.3v6.47Z" style="fill:#37474f"></path><path d="M242.12,361.7a219.92,219.92,0,0,1-49,12.5,231.63,231.63,0,0,1-32.4,2.33c-1.76,0-3.53,0-5.31-.07a204.39,204.39,0,0,1-30.45-3,42.75,42.75,0,0,1-4.1-15.17,54,54,0,0,1,7.71-23.19c7.17-12.14,17.62-21.4,23.7-25.3l43.4,25.05Z" style="fill:#9a4a4d"></path><path d="M152.29,314.7c-6.08,3.9-16.53,13.16-23.7,25.3a55.2,55.2,0,0,0-7.45,20.71A43.27,43.27,0,0,0,125,373.5a204.39,204.39,0,0,0,30.45,3c1.78,0,3.55.07,5.31.07a231.63,231.63,0,0,0,32.4-2.33A226.81,226.81,0,0,0,237,363.61l-41.33-23.86Z" style="fill:#b16668"></path><path d="M143.35,334.14v-1a1.92,1.92,0,0,1,.87-1.5l6.39-3.69a2,2,0,0,1,1.73,0L175,341a1.89,1.89,0,0,1,.87,1.5v1A1.92,1.92,0,0,1,175,345l-6.39,3.69a1.89,1.89,0,0,1-1.73,0l-22.64-13.07A1.92,1.92,0,0,1,143.35,334.14Z" style="fill:#ebebeb"></path><path d="M167.72,345.92v3a1.74,1.74,0,0,1-.86-.21l-22.64-13.07a1.91,1.91,0,0,1-.87-1.5v-1a2,2,0,0,1,.71-1.39c-.31.28-.26.65.16.89l22.64,13.07A1.71,1.71,0,0,0,167.72,345.92Z" style="fill:#e0e0e0"></path><path d="M144.22,332.64l22.64,13.08a2,2,0,0,0,1.73,0L175,342c.48-.28.48-.73,0-1L152.34,328a2,2,0,0,0-1.73,0l-6.39,3.69C143.74,331.92,143.74,332.37,144.22,332.64Z" style="fill:#fafafa"></path><path d="M175.85,352.92v-1a1.92,1.92,0,0,1,.87-1.5l6.39-3.69a2,2,0,0,1,1.73,0l22.64,13.08a1.89,1.89,0,0,1,.87,1.5v1a1.92,1.92,0,0,1-.87,1.5l-6.39,3.69a1.89,1.89,0,0,1-1.73,0l-22.64-13.07A1.92,1.92,0,0,1,175.85,352.92Z" style="fill:#ebebeb"></path><path d="M200.22,364.7v3a1.74,1.74,0,0,1-.86-.21l-22.64-13.07a1.91,1.91,0,0,1-.87-1.5v-1a2,2,0,0,1,.71-1.39c-.31.28-.26.65.16.89l22.64,13.07A1.71,1.71,0,0,0,200.22,364.7Z" style="fill:#e0e0e0"></path><path d="M176.72,351.42l22.64,13.08a2,2,0,0,0,1.73,0l6.39-3.69c.48-.28.48-.73,0-1l-22.64-13.08a2,2,0,0,0-1.73,0l-6.39,3.69C176.24,350.7,176.24,351.15,176.72,351.42Z" style="fill:#fafafa"></path><polygon points="168.51 309.84 253.81 359.09 253.81 377.85 455.95 261.13 354.39 202.5 168.51 309.84" style="fill:#fafafa"></polygon><polygon points="253.81 373.16 447.82 261.13 354.4 207.19 172.57 312.18 168.51 309.84 354.39 202.5 455.95 261.13 253.81 377.85 253.81 373.16" style="fill:#455a64"></polygon><polygon points="354.4 207.19 354.39 216.57 439.7 265.82 447.82 261.13 354.4 207.19" style="fill:#263238"></polygon><polygon points="172.57 312.18 180.69 316.87 354.39 216.57 354.4 207.19 172.57 312.18" style="fill:#37474f"></polygon><polygon points="180.69 316.87 354.39 216.57 439.7 265.82 253.81 373.16 253.81 359.09 180.69 316.87" style="fill:#9a4a4d"></polygon><polygon points="186.09 319.99 253.81 359.09 253.81 373.16 434.3 268.94 354.39 222.81 186.09 319.99" style="fill:#b16668"></polygon><path d="M335.76,245.31,397,280.69a2.82,2.82,0,0,0,2.59,0l13.55-7.92a2.85,2.85,0,0,1,2.59,0l1.54.89a2.87,2.87,0,0,0,2.6,0l13.68-7.87c.72-.41.72-1.08,0-1.5L363,223.55a2.88,2.88,0,0,0-2.59,0l-17.7,10.24c-.72.41-.72,1.08,0,1.5l2.58,1.51c.72.41.72,1.08,0,1.5l-9.55,5.51C335,244.23,335,244.9,335.76,245.31Z" style="fill:#9a4a4d"></path><path d="M203.47,317.78l68.7,39.67a2.82,2.82,0,0,0,2.59,0L319,331.89a.79.79,0,0,0,0-1.5l-68.7-39.67a2.9,2.9,0,0,0-2.6,0l-44.26,25.56C202.75,316.7,202.75,317.37,203.47,317.78Z" style="fill:#9a4a4d"></path><path d="M256.27,287.3,325,327a2.9,2.9,0,0,0,2.6,0l44.26-25.56c.72-.42.72-1.09,0-1.5l-68.7-39.67a2.84,2.84,0,0,0-2.6,0L256.27,285.8C255.55,286.21,255.55,286.88,256.27,287.3Z" style="fill:#9a4a4d"></path><path d="M276.69,297.37l-18.58-10.72a1.91,1.91,0,0,1-.86-1.5V268.38a1.91,1.91,0,0,1,.86-1.5l42.95-24.79a1.89,1.89,0,0,1,1.73,0l18.58,10.72a1.92,1.92,0,0,1,.87,1.5v16.76a1.89,1.89,0,0,1-.87,1.5l-42.95,24.8A1.89,1.89,0,0,1,276.69,297.37Z" style="fill:#37474f"></path><path d="M258.54,268.13l17.72,10.23a2.88,2.88,0,0,0,2.59,0l42.09-24.3c.72-.41.72-1.08,0-1.5l-17.71-10.22a2.84,2.84,0,0,0-2.6,0l-42.09,24.29A.79.79,0,0,0,258.54,268.13Z" style="fill:#455a64"></path><path d="M277.56,278.67v18.91a1.75,1.75,0,0,1-.87-.21l-18.58-10.72a1.91,1.91,0,0,1-.86-1.5V268.39a1.88,1.88,0,0,1,.86-1.5l.36-.21c-.64.41-.62,1.05.07,1.45l17.72,10.23A2.6,2.6,0,0,0,277.56,278.67Z" style="fill:#263238"></path><polygon points="278.77 279.79 279.39 279.43 279.39 295.49 278.77 295.85 278.77 279.79" style="fill:#263238"></polygon><polygon points="281.05 278.47 281.67 278.11 281.67 294.18 281.05 294.53 281.05 278.47" style="fill:#263238"></polygon><polygon points="283.34 277.15 283.96 276.79 283.96 292.86 283.34 293.21 283.34 277.15" style="fill:#263238"></polygon><polygon points="285.62 275.83 286.24 275.47 286.24 291.54 285.62 291.89 285.62 275.83" style="fill:#263238"></polygon><polygon points="287.9 274.51 288.52 274.15 288.52 290.22 287.9 290.57 287.9 274.51" style="fill:#263238"></polygon><polygon points="290.19 273.19 290.81 272.83 290.81 288.9 290.19 289.26 290.19 273.19" style="fill:#263238"></polygon><polygon points="292.47 271.87 293.09 271.52 293.09 287.58 292.47 287.94 292.47 271.87" style="fill:#263238"></polygon><polygon points="294.75 270.56 295.37 270.2 295.37 286.26 294.75 286.62 294.75 270.56" style="fill:#263238"></polygon><polygon points="297.04 269.24 297.66 268.88 297.66 284.94 297.04 285.3 297.04 269.24" style="fill:#263238"></polygon><polygon points="299.32 267.92 299.94 267.56 299.94 283.62 299.32 283.98 299.32 267.92" style="fill:#263238"></polygon><polygon points="301.6 266.6 302.22 266.24 302.22 282.3 301.6 282.66 301.6 266.6" style="fill:#263238"></polygon><polygon points="303.89 265.28 304.51 264.92 304.51 280.98 303.89 281.34 303.89 265.28" style="fill:#263238"></polygon><polygon points="306.17 263.96 306.79 263.6 306.79 279.66 306.17 280.02 306.17 263.96" style="fill:#263238"></polygon><polygon points="308.45 262.64 309.07 262.28 309.07 278.34 308.45 278.7 308.45 262.64" style="fill:#263238"></polygon><polygon points="310.74 261.32 311.36 260.96 311.36 277.02 310.74 277.38 310.74 261.32" style="fill:#263238"></polygon><polygon points="313.02 260 313.64 259.64 313.64 275.7 313.02 276.06 313.02 260" style="fill:#263238"></polygon><polygon points="315.3 258.68 315.92 258.32 315.92 274.38 315.3 274.74 315.3 258.68" style="fill:#263238"></polygon><polygon points="317.59 257.36 318.21 257 318.21 273.07 317.59 273.42 317.59 257.36" style="fill:#263238"></polygon><polygon points="319.87 256.04 320.49 255.68 320.49 271.75 319.87 272.11 319.87 256.04" style="fill:#263238"></polygon><polygon points="267.22 274.92 266.6 274.56 266.6 290.63 267.22 290.98 267.22 274.92" style="opacity:0.30000000000000004"></polygon><polygon points="268.49 276.7 276.01 281.05 276.01 280.62 268.49 276.27 268.49 276.7" style="opacity:0.30000000000000004"></polygon><polygon points="268.49 291.07 276.01 295.42 276.01 294.99 268.49 290.64 268.49 291.07" style="opacity:0.30000000000000004"></polygon><polygon points="268.49 282.47 276.01 286.81 276.01 286.38 268.49 282.04 268.49 282.47" style="opacity:0.30000000000000004"></polygon><polygon points="268.49 283.84 276.01 288.18 276.01 287.75 268.49 283.41 268.49 283.84" style="opacity:0.30000000000000004"></polygon><polygon points="268.49 285.21 276.01 289.55 276.01 289.12 268.49 284.78 268.49 285.21" style="opacity:0.30000000000000004"></polygon><polygon points="258.11 270.73 265.63 275.07 265.63 274.64 258.11 270.3 258.11 270.73" style="opacity:0.30000000000000004"></polygon><polygon points="258.11 285.1 265.63 289.44 265.63 289.01 258.11 284.67 258.11 285.1" style="opacity:0.30000000000000004"></polygon><polygon points="258.11 276.49 265.63 280.83 265.63 280.4 258.11 276.06 258.11 276.49" style="opacity:0.30000000000000004"></polygon><polygon points="258.11 277.86 265.63 282.21 265.63 281.77 258.11 277.43 258.11 277.86" style="opacity:0.30000000000000004"></polygon><polygon points="258.11 279.24 265.63 283.58 265.63 283.15 258.11 278.81 258.11 279.24" style="opacity:0.30000000000000004"></polygon><path d="M301,311.49l-18.58-10.73a1.9,1.9,0,0,1-.86-1.5V282.5a1.94,1.94,0,0,1,.86-1.5l42.95-24.8a2,2,0,0,1,1.74,0l18.57,10.73a1.91,1.91,0,0,1,.87,1.5v16.76a1.92,1.92,0,0,1-.87,1.5l-42.95,24.8A2,2,0,0,1,301,311.49Z" style="fill:#407BFF"></path><path d="M282.89,282.25l17.71,10.23a2.9,2.9,0,0,0,2.6,0l42.08-24.3c.72-.42.72-1.09,0-1.5l-17.71-10.23a2.9,2.9,0,0,0-2.6,0l-42.08,24.3A.79.79,0,0,0,282.89,282.25Z" style="fill:#fff;opacity:0.30000000000000004"></path><path d="M301.9,292.78v18.91a1.65,1.65,0,0,1-.87-.21l-18.58-10.71a1.93,1.93,0,0,1-.86-1.5V282.51a1.87,1.87,0,0,1,.86-1.5l.36-.21c-.64.41-.62,1.05.07,1.44l17.72,10.24A2.6,2.6,0,0,0,301.9,292.78Z" style="opacity:0.1"></path><polygon points="303.45 293.75 304.07 293.39 304.07 309.45 303.45 309.81 303.45 293.75" style="opacity:0.1"></polygon><polygon points="305.74 292.43 306.36 292.07 306.36 308.13 305.74 308.49 305.74 292.43" style="opacity:0.1"></polygon><polygon points="308.02 291.11 308.64 290.75 308.64 306.82 308.02 307.17 308.02 291.11" style="opacity:0.1"></polygon><polygon points="310.3 289.79 310.92 289.43 310.92 305.5 310.3 305.86 310.3 289.79" style="opacity:0.1"></polygon><polygon points="312.59 288.47 313.21 288.11 313.21 304.18 312.59 304.54 312.59 288.47" style="opacity:0.1"></polygon><polygon points="314.87 287.15 315.49 286.8 315.49 302.86 314.87 303.22 314.87 287.15" style="opacity:0.1"></polygon><polygon points="317.15 285.83 317.77 285.48 317.77 301.54 317.15 301.9 317.15 285.83" style="opacity:0.1"></polygon><polygon points="319.44 284.51 320.06 284.16 320.06 300.22 319.44 300.58 319.44 284.51" style="opacity:0.1"></polygon><polygon points="321.72 283.2 322.34 282.84 322.34 298.9 321.72 299.26 321.72 283.2" style="opacity:0.1"></polygon><polygon points="324 281.88 324.62 281.52 324.62 297.58 324 297.94 324 281.88" style="opacity:0.1"></polygon><polygon points="326.29 280.56 326.91 280.2 326.91 296.26 326.29 296.62 326.29 280.56" style="opacity:0.1"></polygon><polygon points="328.57 279.24 329.19 278.88 329.19 294.94 328.57 295.3 328.57 279.24" style="opacity:0.1"></polygon><polygon points="330.85 277.92 331.47 277.56 331.47 293.62 330.85 293.98 330.85 277.92" style="opacity:0.1"></polygon><polygon points="333.14 276.6 333.76 276.24 333.76 292.3 333.14 292.66 333.14 276.6" style="opacity:0.1"></polygon><polygon points="335.42 275.28 336.04 274.92 336.04 290.98 335.42 291.34 335.42 275.28" style="opacity:0.1"></polygon><polygon points="337.7 273.96 338.32 273.6 338.32 289.67 337.7 290.02 337.7 273.96" style="opacity:0.1"></polygon><polygon points="339.99 272.64 340.61 272.28 340.61 288.35 339.99 288.7 339.99 272.64" style="opacity:0.1"></polygon><polygon points="342.27 271.32 342.89 270.96 342.89 287.03 342.27 287.38 342.27 271.32" style="opacity:0.1"></polygon><polygon points="344.55 270 345.17 269.64 345.17 285.71 344.55 286.06 344.55 270" style="opacity:0.1"></polygon><polygon points="291.9 288.88 291.28 288.52 291.28 304.59 291.9 304.94 291.9 288.88" style="opacity:0.1"></polygon><polygon points="293.17 290.66 300.69 295.01 300.69 294.57 293.17 290.23 293.17 290.66" style="opacity:0.1"></polygon><polygon points="293.17 305.04 300.69 309.38 300.69 308.95 293.17 304.61 293.17 305.04" style="opacity:0.1"></polygon><polygon points="293.17 296.43 300.69 300.77 300.69 300.34 293.17 296 293.17 296.43" style="opacity:0.1"></polygon><polygon points="293.17 297.8 300.69 302.14 300.69 301.71 293.17 297.37 293.17 297.8" style="opacity:0.1"></polygon><polygon points="293.17 299.17 300.69 303.51 300.69 303.08 293.17 298.74 293.17 299.17" style="opacity:0.1"></polygon><polygon points="282.79 284.69 290.31 289.03 290.31 288.6 282.79 284.26 282.79 284.69" style="opacity:0.1"></polygon><polygon points="282.79 299.06 290.31 303.4 290.31 302.97 282.79 298.63 282.79 299.06" style="opacity:0.1"></polygon><polygon points="282.79 290.45 290.31 294.79 290.31 294.36 282.79 290.02 282.79 290.45" style="opacity:0.1"></polygon><polygon points="282.79 291.82 290.31 296.17 290.31 295.74 282.79 291.39 282.79 291.82" style="opacity:0.1"></polygon><polygon points="282.79 293.2 290.31 297.54 290.31 297.11 282.79 292.77 282.79 293.2" style="opacity:0.1"></polygon><path d="M325.4,325.53l-18.57-10.72a1.92,1.92,0,0,1-.87-1.5V296.55a1.89,1.89,0,0,1,.87-1.5l42.95-24.8a1.89,1.89,0,0,1,1.73,0L370.09,281a1.94,1.94,0,0,1,.86,1.5v16.77a1.91,1.91,0,0,1-.86,1.5l-42.95,24.79A1.91,1.91,0,0,1,325.4,325.53Z" style="fill:#37474f"></path><path d="M307.26,296.3,325,306.52a2.84,2.84,0,0,0,2.6,0l42.08-24.3c.72-.41.72-1.08,0-1.5L351.94,270.5a2.84,2.84,0,0,0-2.6,0l-42.08,24.3C306.54,295.21,306.54,295.88,307.26,296.3Z" style="fill:#455a64"></path><path d="M326.27,306.83v18.91a1.75,1.75,0,0,1-.87-.21l-18.58-10.72a1.91,1.91,0,0,1-.86-1.5V296.55a1.88,1.88,0,0,1,.86-1.5l.36-.21c-.64.41-.62,1.05.07,1.45L325,306.52A2.6,2.6,0,0,0,326.27,306.83Z" style="fill:#263238"></path><polygon points="327.48 307.95 328.1 307.59 328.1 323.65 327.48 324.01 327.48 307.95" style="fill:#263238"></polygon><polygon points="329.77 306.63 330.39 306.27 330.39 322.34 329.77 322.69 329.77 306.63" style="fill:#263238"></polygon><polygon points="332.05 305.31 332.67 304.95 332.67 321.02 332.05 321.38 332.05 305.31" style="fill:#263238"></polygon><polygon points="334.33 303.99 334.95 303.63 334.95 319.7 334.33 320.06 334.33 303.99" style="fill:#263238"></polygon><polygon points="336.62 302.67 337.24 302.31 337.24 318.38 336.62 318.74 336.62 302.67" style="fill:#263238"></polygon><polygon points="338.9 301.35 339.52 301 339.52 317.06 338.9 317.42 338.9 301.35" style="fill:#263238"></polygon><polygon points="341.18 300.04 341.81 299.68 341.8 315.74 341.18 316.1 341.18 300.04" style="fill:#263238"></polygon><polygon points="343.47 298.72 344.09 298.36 344.09 314.42 343.47 314.78 343.47 298.72" style="fill:#263238"></polygon><polygon points="345.75 297.4 346.37 297.04 346.37 313.1 345.75 313.46 345.75 297.4" style="fill:#263238"></polygon><polygon points="348.03 296.08 348.65 295.72 348.65 311.78 348.03 312.14 348.03 296.08" style="fill:#263238"></polygon><polygon points="350.32 294.76 350.94 294.4 350.94 310.46 350.32 310.82 350.32 294.76" style="fill:#263238"></polygon><polygon points="352.6 293.44 353.22 293.08 353.22 309.14 352.6 309.5 352.6 293.44" style="fill:#263238"></polygon><polygon points="354.88 292.12 355.5 291.76 355.5 307.82 354.88 308.18 354.88 292.12" style="fill:#263238"></polygon><polygon points="357.17 290.8 357.79 290.44 357.79 306.5 357.17 306.86 357.17 290.8" style="fill:#263238"></polygon><polygon points="359.45 289.48 360.07 289.12 360.07 305.19 359.45 305.54 359.45 289.48" style="fill:#263238"></polygon><polygon points="361.73 288.16 362.35 287.8 362.35 303.87 361.73 304.22 361.73 288.16" style="fill:#263238"></polygon><polygon points="364.02 286.84 364.64 286.48 364.64 302.55 364.02 302.9 364.02 286.84" style="fill:#263238"></polygon><polygon points="366.3 285.52 366.92 285.16 366.92 301.23 366.3 301.58 366.3 285.52" style="fill:#263238"></polygon><polygon points="368.58 284.2 369.2 283.85 369.2 299.91 368.58 300.27 368.58 284.2" style="fill:#263238"></polygon><polygon points="315.93 303.08 315.31 302.72 315.31 318.79 315.93 319.14 315.93 303.08" style="opacity:0.30000000000000004"></polygon><polygon points="317.2 304.87 324.72 309.21 324.72 308.78 317.2 304.44 317.2 304.87" style="opacity:0.30000000000000004"></polygon><polygon points="317.2 319.24 324.72 323.58 324.72 323.15 317.2 318.81 317.2 319.24" style="opacity:0.30000000000000004"></polygon><polygon points="317.2 310.63 324.72 314.97 324.72 314.54 317.2 310.2 317.2 310.63" style="opacity:0.30000000000000004"></polygon><polygon points="317.2 312 324.72 316.34 324.72 315.91 317.2 311.57 317.2 312" style="opacity:0.30000000000000004"></polygon><polygon points="317.2 313.37 324.72 317.71 324.72 317.28 317.2 312.94 317.2 313.37" style="opacity:0.30000000000000004"></polygon><polygon points="306.82 298.89 314.34 303.23 314.34 302.8 306.82 298.46 306.82 298.89" style="opacity:0.30000000000000004"></polygon><polygon points="306.82 313.26 314.34 317.6 314.34 317.17 306.82 312.83 306.82 313.26" style="opacity:0.30000000000000004"></polygon><polygon points="306.82 304.65 314.34 309 314.34 308.56 306.82 304.22 306.82 304.65" style="opacity:0.30000000000000004"></polygon><polygon points="306.82 306.02 314.34 310.37 314.34 309.94 306.82 305.6 306.82 306.02" style="opacity:0.30000000000000004"></polygon><polygon points="306.82 307.4 314.34 311.74 314.34 311.31 306.82 306.97 306.82 307.4" style="opacity:0.30000000000000004"></polygon><path d="M223.85,327.86l-18.57-10.73a1.89,1.89,0,0,1-.87-1.5V298.87a1.92,1.92,0,0,1,.87-1.5l42.95-24.8a2,2,0,0,1,1.73,0l18.58,10.73a1.94,1.94,0,0,1,.86,1.5v16.76a1.9,1.9,0,0,1-.86,1.5l-43,24.8A1.91,1.91,0,0,1,223.85,327.86Z" style="fill:#407BFF"></path><path d="M205.71,298.62l17.71,10.23a2.9,2.9,0,0,0,2.6,0l42.08-24.3a.79.79,0,0,0,0-1.5l-17.71-10.23a2.9,2.9,0,0,0-2.6,0l-42.08,24.3C205,297.54,205,298.21,205.71,298.62Z" style="fill:#fff;opacity:0.30000000000000004"></path><path d="M224.72,309.16v18.91a1.75,1.75,0,0,1-.87-.21l-18.58-10.72a1.91,1.91,0,0,1-.86-1.5V298.88a1.88,1.88,0,0,1,.86-1.5l.36-.21c-.64.41-.62,1.05.07,1.45l17.72,10.23A2.6,2.6,0,0,0,224.72,309.16Z" style="opacity:0.1"></path><polygon points="226.28 310.12 226.9 309.76 226.9 325.83 226.28 326.19 226.28 310.12" style="opacity:0.1"></polygon><polygon points="228.56 308.8 229.18 308.44 229.18 324.51 228.56 324.87 228.56 308.8" style="opacity:0.1"></polygon><polygon points="230.84 307.48 231.46 307.13 231.46 323.19 230.84 323.55 230.84 307.48" style="opacity:0.1"></polygon><polygon points="233.13 306.17 233.75 305.81 233.75 321.87 233.13 322.23 233.13 306.17" style="opacity:0.1"></polygon><polygon points="235.41 304.85 236.03 304.49 236.03 320.55 235.41 320.91 235.41 304.85" style="opacity:0.1"></polygon><polygon points="237.69 303.53 238.31 303.17 238.31 319.23 237.69 319.59 237.69 303.53" style="opacity:0.1"></polygon><polygon points="239.98 302.21 240.6 301.85 240.6 317.91 239.98 318.27 239.98 302.21" style="opacity:0.1"></polygon><polygon points="242.26 300.89 242.88 300.53 242.88 316.59 242.26 316.95 242.26 300.89" style="opacity:0.1"></polygon><polygon points="244.54 299.57 245.16 299.21 245.16 315.27 244.54 315.63 244.54 299.57" style="opacity:0.1"></polygon><polygon points="246.83 298.25 247.45 297.89 247.45 313.95 246.83 314.31 246.83 298.25" style="opacity:0.1"></polygon><polygon points="249.11 296.93 249.73 296.57 249.73 312.63 249.11 312.99 249.11 296.93" style="opacity:0.1"></polygon><polygon points="251.39 295.61 252.01 295.25 252.01 311.31 251.39 311.67 251.39 295.61" style="opacity:0.1"></polygon><polygon points="253.68 294.29 254.3 293.93 254.3 310 253.68 310.35 253.68 294.29" style="opacity:0.1"></polygon><polygon points="255.96 292.97 256.58 292.61 256.58 308.68 255.96 309.03 255.96 292.97" style="opacity:0.1"></polygon><polygon points="258.24 291.65 258.86 291.29 258.86 307.36 258.24 307.71 258.24 291.65" style="opacity:0.1"></polygon><polygon points="260.53 290.33 261.15 289.98 261.15 306.04 260.53 306.39 260.53 290.33" style="opacity:0.1"></polygon><polygon points="262.81 289.01 263.43 288.65 263.43 304.72 262.81 305.08 262.81 289.01" style="opacity:0.1"></polygon><polygon points="265.09 287.69 265.71 287.34 265.71 303.4 265.09 303.76 265.09 287.69" style="opacity:0.1"></polygon><polygon points="267.38 286.38 268 286.02 268 302.08 267.38 302.44 267.38 286.38" style="opacity:0.1"></polygon><polygon points="214.72 305.25 214.1 304.9 214.1 320.96 214.72 321.32 214.72 305.25" style="opacity:0.1"></polygon><polygon points="215.99 307.04 223.51 311.38 223.51 310.95 215.99 306.61 215.99 307.04" style="opacity:0.1"></polygon><polygon points="215.99 321.41 223.51 325.75 223.51 325.32 215.99 320.98 215.99 321.41" style="opacity:0.1"></polygon><polygon points="215.99 312.8 223.51 317.14 223.51 316.71 215.99 312.37 215.99 312.8" style="opacity:0.1"></polygon><polygon points="215.99 314.17 223.51 318.51 223.51 318.08 215.99 313.74 215.99 314.17" style="opacity:0.1"></polygon><polygon points="215.99 315.54 223.51 319.88 223.51 319.45 215.99 315.11 215.99 315.54" style="opacity:0.1"></polygon><polygon points="205.62 301.06 213.14 305.4 213.14 304.97 205.62 300.63 205.62 301.06" style="opacity:0.1"></polygon><polygon points="205.62 315.43 213.14 319.78 213.14 319.35 205.62 315 205.62 315.43" style="opacity:0.1"></polygon><polygon points="205.62 306.82 213.14 311.17 213.14 310.74 205.62 306.39 205.62 306.82" style="opacity:0.1"></polygon><polygon points="205.62 308.2 213.14 312.54 213.14 312.11 205.62 307.77 205.62 308.2" style="opacity:0.1"></polygon><polygon points="205.62 309.57 213.14 313.91 213.14 313.48 205.62 309.14 205.62 309.57" style="opacity:0.1"></polygon><path d="M248.23,341.94l-18.58-10.73a1.89,1.89,0,0,1-.87-1.5V313a1.92,1.92,0,0,1,.87-1.5l43-24.79a1.89,1.89,0,0,1,1.73,0l18.58,10.72a1.91,1.91,0,0,1,.86,1.5v16.76a1.88,1.88,0,0,1-.86,1.5l-43,24.8A1.89,1.89,0,0,1,248.23,341.94Z" style="fill:#37474f"></path><path d="M230.08,312.7l17.71,10.23a2.9,2.9,0,0,0,2.6,0l42.08-24.3c.72-.41.72-1.08,0-1.5l-17.71-10.22a2.82,2.82,0,0,0-2.59,0L230.08,311.2C229.36,311.62,229.36,312.29,230.08,312.7Z" style="fill:#455a64"></path><path d="M249.1,323.24v18.91a1.75,1.75,0,0,1-.87-.21l-18.58-10.72a1.91,1.91,0,0,1-.86-1.5V313a1.88,1.88,0,0,1,.86-1.5l.36-.21c-.64.41-.62,1.05.07,1.45l17.72,10.23A2.6,2.6,0,0,0,249.1,323.24Z" style="fill:#263238"></path><polygon points="250.31 324.36 250.93 324 250.93 340.06 250.31 340.42 250.31 324.36" style="fill:#263238"></polygon><polygon points="252.59 323.04 253.21 322.68 253.21 338.74 252.59 339.1 252.59 323.04" style="fill:#263238"></polygon><polygon points="254.87 321.72 255.49 321.36 255.49 337.42 254.87 337.78 254.87 321.72" style="fill:#263238"></polygon><polygon points="257.16 320.4 257.78 320.04 257.77 336.11 257.16 336.46 257.16 320.4" style="fill:#263238"></polygon><polygon points="259.44 319.08 260.06 318.72 260.06 334.79 259.44 335.14 259.44 319.08" style="fill:#263238"></polygon><polygon points="261.72 317.76 262.34 317.4 262.34 333.47 261.72 333.82 261.72 317.76" style="fill:#263238"></polygon><polygon points="264 316.44 264.63 316.08 264.63 332.15 264.01 332.5 264 316.44" style="fill:#263238"></polygon><polygon points="266.29 315.12 266.91 314.76 266.91 330.83 266.29 331.19 266.29 315.12" style="fill:#263238"></polygon><polygon points="268.57 313.8 269.19 313.45 269.19 329.51 268.57 329.87 268.57 313.8" style="fill:#263238"></polygon><polygon points="270.86 312.49 271.48 312.13 271.48 328.19 270.86 328.55 270.86 312.49" style="fill:#263238"></polygon><polygon points="273.14 311.17 273.76 310.81 273.76 326.87 273.14 327.23 273.14 311.17" style="fill:#263238"></polygon><polygon points="275.42 309.85 276.04 309.49 276.04 325.55 275.42 325.91 275.42 309.85" style="fill:#263238"></polygon><polygon points="277.71 308.53 278.33 308.17 278.33 324.23 277.71 324.59 277.71 308.53" style="fill:#263238"></polygon><polygon points="279.99 307.21 280.61 306.85 280.61 322.91 279.99 323.27 279.99 307.21" style="fill:#263238"></polygon><polygon points="282.27 305.89 282.89 305.53 282.89 321.59 282.27 321.95 282.27 305.89" style="fill:#263238"></polygon><polygon points="284.56 304.57 285.18 304.21 285.18 320.27 284.56 320.63 284.56 304.57" style="fill:#263238"></polygon><polygon points="286.84 303.25 287.46 302.89 287.46 318.95 286.84 319.31 286.84 303.25" style="fill:#263238"></polygon><polygon points="289.12 301.93 289.74 301.57 289.74 317.63 289.12 317.99 289.12 301.93" style="fill:#263238"></polygon><polygon points="291.41 300.61 292.03 300.25 292.02 316.31 291.41 316.67 291.41 300.61" style="fill:#263238"></polygon><polygon points="238.75 319.49 238.13 319.13 238.13 335.19 238.75 335.55 238.75 319.49" style="opacity:0.30000000000000004"></polygon><polygon points="240.02 321.27 247.54 325.61 247.54 325.18 240.02 320.84 240.02 321.27" style="opacity:0.30000000000000004"></polygon><polygon points="240.02 335.64 247.54 339.99 247.54 339.56 240.02 335.21 240.02 335.64" style="opacity:0.30000000000000004"></polygon><polygon points="240.02 327.04 247.54 331.38 247.54 330.95 240.02 326.6 240.02 327.04" style="opacity:0.30000000000000004"></polygon><polygon points="240.02 328.41 247.54 332.75 247.54 332.32 240.02 327.98 240.02 328.41" style="opacity:0.30000000000000004"></polygon><polygon points="240.02 329.78 247.54 334.12 247.54 333.69 240.02 329.35 240.02 329.78" style="opacity:0.30000000000000004"></polygon><polygon points="229.65 315.3 237.17 319.64 237.17 319.21 229.65 314.87 229.65 315.3" style="opacity:0.30000000000000004"></polygon><polygon points="229.65 329.67 237.17 334.01 237.17 333.58 229.65 329.24 229.65 329.67" style="opacity:0.30000000000000004"></polygon><polygon points="229.65 321.06 237.17 325.4 237.17 324.97 229.65 320.63 229.65 321.06" style="opacity:0.30000000000000004"></polygon><polygon points="229.65 322.43 237.17 326.77 237.17 326.34 229.65 322 229.65 322.43" style="opacity:0.30000000000000004"></polygon><polygon points="229.65 323.81 237.17 328.15 237.17 327.72 229.65 323.37 229.65 323.81" style="opacity:0.30000000000000004"></polygon><path d="M272.6,356,254,345.29a1.92,1.92,0,0,1-.87-1.5V327a1.92,1.92,0,0,1,.87-1.5l43-24.79a1.89,1.89,0,0,1,1.73,0l18.58,10.72a1.92,1.92,0,0,1,.87,1.5v16.76a1.89,1.89,0,0,1-.87,1.5L274.33,356A1.89,1.89,0,0,1,272.6,356Z" style="fill:#407BFF"></path><path d="M254.45,326.77,272.17,337a2.88,2.88,0,0,0,2.59,0l42.09-24.3a.79.79,0,0,0,0-1.5L299.14,301a2.84,2.84,0,0,0-2.6,0l-42.09,24.29A.79.79,0,0,0,254.45,326.77Z" style="fill:#fff;opacity:0.30000000000000004"></path><path d="M273.47,337.31v18.91a1.75,1.75,0,0,1-.87-.21L254,345.29a1.91,1.91,0,0,1-.86-1.5V327a1.88,1.88,0,0,1,.86-1.5l.36-.21c-.64.41-.62,1.05.07,1.45L272.17,337A2.6,2.6,0,0,0,273.47,337.31Z" style="opacity:0.1"></path><polygon points="275.02 338.27 275.64 337.92 275.64 353.98 275.02 354.34 275.02 338.27" style="opacity:0.1"></polygon><polygon points="277.3 336.95 277.92 336.6 277.92 352.66 277.3 353.02 277.3 336.95" style="opacity:0.1"></polygon><polygon points="279.59 335.64 280.21 335.28 280.21 351.34 279.59 351.7 279.59 335.64" style="opacity:0.1"></polygon><polygon points="281.87 334.32 282.49 333.96 282.49 350.02 281.87 350.38 281.87 334.32" style="opacity:0.1"></polygon><polygon points="284.15 333 284.77 332.64 284.77 348.7 284.15 349.06 284.15 333" style="opacity:0.1"></polygon><polygon points="286.44 331.68 287.06 331.32 287.06 347.38 286.44 347.74 286.44 331.68" style="opacity:0.1"></polygon><polygon points="288.72 330.36 289.34 330 289.34 346.06 288.72 346.42 288.72 330.36" style="opacity:0.1"></polygon><polygon points="291 329.04 291.62 328.68 291.62 344.74 291 345.1 291 329.04" style="opacity:0.1"></polygon><polygon points="293.29 327.72 293.91 327.36 293.91 343.42 293.29 343.78 293.29 327.72" style="opacity:0.1"></polygon><polygon points="295.57 326.4 296.19 326.04 296.19 342.11 295.57 342.46 295.57 326.4" style="opacity:0.1"></polygon><polygon points="297.85 325.08 298.47 324.72 298.47 340.79 297.85 341.14 297.85 325.08" style="opacity:0.1"></polygon><polygon points="300.14 323.76 300.76 323.4 300.76 339.47 300.14 339.82 300.14 323.76" style="opacity:0.1"></polygon><polygon points="302.42 322.44 303.04 322.08 303.04 338.15 302.42 338.5 302.42 322.44" style="opacity:0.1"></polygon><polygon points="304.7 321.12 305.32 320.76 305.32 336.83 304.7 337.19 304.7 321.12" style="opacity:0.1"></polygon><polygon points="306.99 319.8 307.61 319.45 307.61 335.51 306.99 335.87 306.99 319.8" style="opacity:0.1"></polygon><polygon points="309.27 318.49 309.89 318.13 309.89 334.19 309.27 334.55 309.27 318.49" style="opacity:0.1"></polygon><polygon points="311.55 317.17 312.17 316.81 312.17 332.87 311.55 333.23 311.55 317.17" style="opacity:0.1"></polygon><polygon points="313.84 315.85 314.46 315.49 314.46 331.55 313.84 331.91 313.84 315.85" style="opacity:0.1"></polygon><polygon points="316.12 314.53 316.74 314.17 316.74 330.23 316.12 330.59 316.12 314.53" style="opacity:0.1"></polygon><polygon points="263.47 333.41 262.85 333.05 262.85 349.11 263.47 349.47 263.47 333.41" style="opacity:0.1"></polygon><polygon points="264.74 335.19 272.26 339.53 272.26 339.1 264.74 334.76 264.74 335.19" style="opacity:0.1"></polygon><polygon points="264.74 349.56 272.26 353.9 272.26 353.47 264.74 349.13 264.74 349.56" style="opacity:0.1"></polygon><polygon points="264.74 340.95 272.26 345.29 272.26 344.86 264.74 340.52 264.74 340.95" style="opacity:0.1"></polygon><polygon points="264.74 342.32 272.26 346.66 272.26 346.23 264.74 341.89 264.74 342.32" style="opacity:0.1"></polygon><polygon points="264.74 343.69 272.26 348.04 272.26 347.61 264.74 343.26 264.74 343.69" style="opacity:0.1"></polygon><polygon points="254.36 329.21 261.88 333.56 261.88 333.13 254.36 328.78 254.36 329.21" style="opacity:0.1"></polygon><polygon points="254.36 343.59 261.88 347.93 261.88 347.5 254.36 343.16 254.36 343.59" style="opacity:0.1"></polygon><polygon points="254.36 334.98 261.88 339.32 261.88 338.89 254.36 334.55 254.36 334.98" style="opacity:0.1"></polygon><polygon points="254.36 336.35 261.88 340.69 261.88 340.26 254.36 335.92 254.36 336.35" style="opacity:0.1"></polygon><polygon points="254.36 337.72 261.88 342.06 261.88 341.63 254.36 337.29 254.36 337.72" style="opacity:0.1"></polygon><polygon points="418.61 272.71 341.43 228.15 341.43 197.66 418.61 242.22 418.61 272.71" style="fill:#e6e6e6"></polygon><polygon points="430.8 265.67 430.8 235.18 418.61 242.22 418.61 272.71 430.8 265.67" style="fill:#e0e0e0"></polygon><polygon points="430.8 235.18 353.62 190.62 341.43 197.66 418.61 242.22 430.8 235.18" style="fill:#f5f5f5"></polygon><polygon points="351.72 211.73 359.84 216.42 359.84 221.11 351.72 216.42 351.72 211.73" style="fill:#407BFF"></polygon><polygon points="351.72 211.73 352.19 212 352.19 216.15 351.72 216.42 351.72 211.73" style="opacity:0.1"></polygon><polygon points="359.84 221.11 351.72 216.42 352.19 216.15 359.84 220.57 359.84 221.11" style="opacity:0.2"></polygon><polygon points="363.9 218.77 372.03 223.46 372.03 228.15 363.9 223.46 363.9 218.77" style="fill:#407BFF"></polygon><polygon points="363.9 218.77 364.37 219.04 364.37 223.19 363.9 223.46 363.9 218.77" style="opacity:0.1"></polygon><polygon points="372.03 228.15 363.9 223.46 364.37 223.19 372.03 227.61 372.03 228.15" style="opacity:0.2"></polygon><polygon points="376.09 225.8 384.22 230.49 384.22 235.18 376.09 230.49 376.09 225.8" style="fill:#407BFF"></polygon><polygon points="376.09 225.8 376.56 226.07 376.56 230.22 376.09 230.49 376.09 225.8" style="opacity:0.1"></polygon><polygon points="384.22 235.18 376.09 230.49 376.56 230.22 384.22 234.64 384.22 235.18" style="opacity:0.2"></polygon><polygon points="388.28 232.84 396.4 237.53 396.4 242.22 388.28 237.53 388.28 232.84" style="fill:#407BFF"></polygon><polygon points="388.28 232.84 388.75 233.11 388.75 237.26 388.28 237.53 388.28 232.84" style="opacity:0.1"></polygon><polygon points="396.4 242.22 388.28 237.53 388.75 237.26 396.4 241.68 396.4 242.22" style="opacity:0.2"></polygon><polygon points="400.46 239.87 408.59 244.56 408.59 249.25 400.46 244.56 400.46 239.87" style="fill:#407BFF"></polygon><polygon points="400.46 239.87 400.93 240.14 400.93 244.29 400.46 244.56 400.46 239.87" style="opacity:0.1"></polygon><polygon points="408.59 249.25 400.46 244.56 400.93 244.29 408.59 248.71 408.59 249.25" style="opacity:0.2"></polygon><polygon points="398.3 279.74 398.3 265.67 337.37 230.49 337.37 244.56 398.3 279.74" style="fill:#f0f0f0"></polygon><polygon points="398.3 279.74 410.49 272.71 410.49 258.63 398.3 265.67 398.3 279.74" style="fill:#e0e0e0"></polygon><polygon points="410.49 258.63 349.56 223.46 337.37 230.49 398.3 265.67 410.49 258.63" style="fill:#fafafa"></polygon><polygon points="345.49 239.87 353.61 244.56 353.61 249.25 345.49 244.56 345.49 239.87" style="fill:#407BFF"></polygon><polygon points="345.49 239.87 345.96 240.14 345.96 244.29 345.49 244.56 345.49 239.87" style="opacity:0.1"></polygon><polygon points="353.61 249.25 345.49 244.56 345.96 244.29 353.61 248.71 353.61 249.25" style="opacity:0.2"></polygon><polygon points="357.68 246.91 365.8 251.6 365.8 256.29 357.68 251.6 357.68 246.91" style="fill:#407BFF"></polygon><polygon points="357.68 246.91 358.14 247.18 358.14 251.33 357.68 251.6 357.68 246.91" style="opacity:0.1"></polygon><polygon points="365.8 256.29 357.68 251.6 358.14 251.33 365.8 255.75 365.8 256.29" style="opacity:0.2"></polygon><polygon points="369.86 253.94 377.99 258.63 377.99 263.32 369.86 258.63 369.86 253.94" style="fill:#407BFF"></polygon><polygon points="369.86 253.94 370.33 254.21 370.33 258.36 369.86 258.63 369.86 253.94" style="opacity:0.1"></polygon><polygon points="377.99 263.32 369.86 258.63 370.33 258.36 377.99 262.79 377.99 263.32" style="opacity:0.2"></polygon><polygon points="382.05 260.98 390.18 265.67 390.18 270.36 382.05 265.67 382.05 260.98" style="fill:#407BFF"></polygon><polygon points="382.05 260.98 382.52 261.25 382.52 265.4 382.05 265.67 382.05 260.98" style="opacity:0.1"></polygon><polygon points="390.18 270.36 382.05 265.67 382.52 265.4 390.18 269.82 390.18 270.36" style="opacity:0.2"></polygon><polygon points="418.61 242.22 418.61 223.46 430.8 216.42 430.8 235.18 418.61 242.22" style="fill:#e0e0e0"></polygon><polygon points="418.61 223.46 402.36 214.07 402.36 232.84 418.61 242.22 418.61 223.46" style="fill:#e6e6e6"></polygon><polygon points="430.8 216.42 414.55 207.04 402.36 214.07 418.61 223.46 430.8 216.42" style="fill:#f5f5f5"></polygon><polygon points="406.42 221.11 414.55 225.8 414.55 230.49 406.42 225.8 406.42 221.11" style="fill:#407BFF"></polygon><polygon points="406.42 221.11 406.89 221.38 406.89 225.53 406.42 225.8 406.42 221.11" style="opacity:0.1"></polygon><polygon points="414.55 230.49 406.42 225.8 406.89 225.53 414.55 229.95 414.55 230.49" style="opacity:0.2"></polygon><path d="M426.73,215.19v-11.3H421v11.3a1.42,1.42,0,0,0,.84,1.17,4.47,4.47,0,0,0,4.06,0A1.42,1.42,0,0,0,426.73,215.19Z" style="fill:#37474f"></path><path d="M421.83,202.71a4.53,4.53,0,0,1,4.06,0,1.24,1.24,0,0,1,0,2.35,4.47,4.47,0,0,1-4.06,0A1.24,1.24,0,0,1,421.83,202.71Z" style="fill:#455a64"></path><path d="M258.46,208.62,147.2,272.87v-12c-4.65,2.68-19.19,8.52-38.64,11.27a148,148,0,0,1-24.42,1.46,132.48,132.48,0,0,1-20.55-2.06l8.79,6.09A85.48,85.48,0,0,0,118,292.85c23,.8,37.84-4,47.38-9.47l102.7-59.3a8.74,8.74,0,0,0,4.17-5.72l4.39-20.25Z" style="fill:#f0f0f0"></path><path d="M260.5,217.1a10.48,10.48,0,0,1,4.19-6.1c1.82-1.05,2.88,0,2.38,2.29a10.45,10.45,0,0,1-4.2,6.1C261.06,220.44,260,219.41,260.5,217.1Z" style="fill:#263238"></path><path d="M261.6,218.84c-.1,0-.11,0-.13,0a2.1,2.1,0,0,1,0-1.5,9.48,9.48,0,0,1,3.74-5.47,1.6,1.6,0,0,1,.79-.28c.09,0,.11,0,.12,0s.24.59,0,1.5a9.56,9.56,0,0,1-3.74,5.47A1.73,1.73,0,0,1,261.6,218.84Z" style="fill:#455a64"></path><path d="M250.09,223a10.45,10.45,0,0,1,4.2-6.1c1.81-1.05,2.87,0,2.37,2.29a10.48,10.48,0,0,1-4.19,6.1C250.65,226.31,249.59,225.28,250.09,223Z" style="fill:#263238"></path><path d="M251.19,224.71c-.09,0-.11,0-.12,0s-.24-.59,0-1.5a9.52,9.52,0,0,1,3.74-5.47,1.6,1.6,0,0,1,.79-.28c.1,0,.11,0,.13,0a2.1,2.1,0,0,1,0,1.5,9.54,9.54,0,0,1-3.73,5.47A1.79,1.79,0,0,1,251.19,224.71Z" style="fill:#455a64"></path><path d="M239.68,228.84a10.49,10.49,0,0,1,4.2-6.1c1.81-1.05,2.88,0,2.37,2.29a10.48,10.48,0,0,1-4.19,6.1C240.24,232.18,239.18,231.15,239.68,228.84Z" style="fill:#263238"></path><path d="M240.78,230.58c-.09,0-.11,0-.12,0s-.23-.59,0-1.5a9.57,9.57,0,0,1,3.74-5.47,1.6,1.6,0,0,1,.79-.28c.1,0,.12,0,.13,0s.23.59,0,1.5a9.6,9.6,0,0,1-3.74,5.47A1.72,1.72,0,0,1,240.78,230.58Z" style="fill:#455a64"></path><path d="M147.2,260.85c-4.65,2.68-19.19,8.52-38.64,11.27a148,148,0,0,1-24.42,1.46,132.48,132.48,0,0,1-20.55-2.06C52,248.73,74.34,227.8,82.15,223.3l28.62,16.52L131,251.5Z" style="fill:#fafafa"></path><path d="M131,251.5l-20.22-11.68L82.15,223.3c-7.81,4.5-30.11,25.43-18.56,48.22a132.48,132.48,0,0,0,20.55,2.06,148,148,0,0,0,24.42-1.46c19.45-2.75,34-8.59,38.64-11.27Zm-22.65,19A149.51,149.51,0,0,1,87.58,272c-1.13,0-2.26,0-3.4,0a131.73,131.73,0,0,1-19.51-1.89c-5.38-11.34-1.74-21.85,2.32-28.72a52.53,52.53,0,0,1,15.18-16.21L110,241.21l33.87,19.56C138.09,263.44,125.53,268.1,108.34,270.54Z" style="fill:#fafafa"></path><path d="M131,251.5l-20.22-11.68L82.15,223.3c-7.81,4.5-30.11,25.43-18.56,48.22a132.48,132.48,0,0,0,20.55,2.06,148,148,0,0,0,24.42-1.46c19.45-2.75,34-8.59,38.64-11.27Zm-22.65,19A149.51,149.51,0,0,1,87.58,272c-1.13,0-2.26,0-3.4,0a131.73,131.73,0,0,1-19.51-1.89c-5.38-11.34-1.74-21.85,2.32-28.72a52.53,52.53,0,0,1,15.18-16.21L110,241.21l33.87,19.56C138.09,263.44,125.53,268.1,108.34,270.54Z" style="fill:#fafafa"></path><path d="M139.71,262.53a141.27,141.27,0,0,1-31.37,8A147.93,147.93,0,0,1,87.58,272c-1.13,0-2.26,0-3.4,0a131.46,131.46,0,0,1-19.5-1.89,27.32,27.32,0,0,1-2.63-9.72c-.58-7.49,2.07-14.15,4.94-19a52.42,52.42,0,0,1,15.18-16.21v4.15Z" style="fill:#ebebeb"></path><path d="M139.71,262.53a141.27,141.27,0,0,1-31.37,8A147.93,147.93,0,0,1,87.58,272c-1.13,0-2.26,0-3.4,0a131.46,131.46,0,0,1-19.5-1.89,27.32,27.32,0,0,1-2.63-9.72A34.6,34.6,0,0,1,67,245.51a52.48,52.48,0,0,1,15.18-16.2l27.8,16Z" style="fill:#9a4a4d"></path><path d="M82.17,232.42A52.48,52.48,0,0,0,67,248.62a35.39,35.39,0,0,0-4.77,13.28,27.35,27.35,0,0,0,2.46,8.19A131.46,131.46,0,0,0,84.18,272c1.14,0,2.27,0,3.4,0a147.93,147.93,0,0,0,20.76-1.5,145.19,145.19,0,0,0,28.1-6.78L110,248.46Z" style="fill:#b16668"></path><path d="M76.44,244.87v-.63a1.2,1.2,0,0,1,.56-1l4.09-2.37a1.27,1.27,0,0,1,1.11,0l14.51,8.37a1.25,1.25,0,0,1,.55,1v.63a1.22,1.22,0,0,1-.55,1l-4.1,2.37a1.27,1.27,0,0,1-1.11,0L77,245.83A1.2,1.2,0,0,1,76.44,244.87Z" style="fill:#ebebeb"></path><path d="M92.05,252.42v1.92a1.15,1.15,0,0,1-.55-.14L77,245.83a1.22,1.22,0,0,1-.56-1v-.63a1.26,1.26,0,0,1,.46-.9c-.2.18-.17.42.1.57l14.5,8.38A1.12,1.12,0,0,0,92.05,252.42Z" style="fill:#e0e0e0"></path><path d="M77,243.92l14.5,8.37a1.21,1.21,0,0,0,1.11,0l4.1-2.36a.35.35,0,0,0,0-.65L82.2,240.91a1.21,1.21,0,0,0-1.11,0L77,243.28C76.69,243.45,76.69,243.74,77,243.92Z" style="fill:#fafafa"></path><path d="M97.26,256.9v-.63a1.2,1.2,0,0,1,.56-1l4.09-2.37a1.21,1.21,0,0,1,1.11,0l14.5,8.37a1.23,1.23,0,0,1,.56,1v.63a1.23,1.23,0,0,1-.56,1l-4.09,2.37a1.27,1.27,0,0,1-1.11,0l-14.5-8.38A1.2,1.2,0,0,1,97.26,256.9Z" style="fill:#ebebeb"></path><path d="M112.87,264.45v1.92a1.1,1.1,0,0,1-.55-.14l-14.5-8.37a1.22,1.22,0,0,1-.56-1v-.64a1.29,1.29,0,0,1,.45-.89c-.19.18-.16.42.11.57l14.5,8.38A1.07,1.07,0,0,0,112.87,264.45Z" style="fill:#e0e0e0"></path><path d="M97.82,256l14.5,8.37a1.21,1.21,0,0,0,1.11,0l4.09-2.37c.31-.17.31-.46,0-.64L103,252.94a1.21,1.21,0,0,0-1.11,0l-4.09,2.37C97.51,255.48,97.51,255.77,97.82,256Z" style="fill:#fafafa"></path><polygon points="92.56 229.31 147.2 260.86 147.2 272.87 276.68 198.11 211.63 160.55 92.56 229.31" style="fill:#fafafa"></polygon><path d="M143.84,260.77c-1.12.52-2.5,1.12-4.13,1.76L82.17,229.31v-4.15Z" style="fill:#e0e0e0"></path><polygon points="147.2 269.87 271.47 198.11 211.63 163.56 95.16 230.81 92.56 229.31 211.63 160.55 276.68 198.11 147.2 272.87 147.2 269.87" style="fill:#fafafa"></polygon><polygon points="211.63 163.56 211.63 169.57 266.27 201.11 271.47 198.11 211.63 163.56" style="fill:#e0e0e0"></polygon><polygon points="95.16 230.81 100.36 233.81 211.63 169.57 211.63 163.56 95.16 230.81" style="fill:#e6e6e6"></polygon><polygon points="100.36 233.81 211.63 169.57 266.27 201.11 147.2 269.87 147.2 260.86 100.36 233.81" style="fill:#9a4a4d"></polygon><polygon points="103.82 235.81 147.2 260.86 147.2 269.87 262.81 203.11 211.63 173.56 103.82 235.81" style="fill:#b16668"></polygon><path d="M199,187.55l39.95,23.09a1.83,1.83,0,0,0,1.66,0l8.68-5.07a1.83,1.83,0,0,1,1.66,0l1,.57a1.8,1.8,0,0,0,1.66,0l8.76-5a.51.51,0,0,0,0-1L217.15,174a1.8,1.8,0,0,0-1.66,0l-11.34,6.55a.51.51,0,0,0,0,1l.94.55c.46.26.46.69,0,1L199,186.59C198.51,186.86,198.51,187.29,199,187.55Z" style="fill:#9a4a4d"></path><path d="M115,234.4l44,25.41a1.89,1.89,0,0,0,1.67,0L189,243.43c.46-.26.46-.69,0-1l-44-25.41a1.89,1.89,0,0,0-1.67,0L115,233.44C114.49,233.7,114.49,234.13,115,234.4Z" style="fill:#9a4a4d"></path><path d="M148.77,214.87l44,25.41a1.86,1.86,0,0,0,1.66,0l28.35-16.37c.46-.27.46-.7,0-1l-44-25.41a1.8,1.8,0,0,0-1.66,0l-28.36,16.37C148.31,214.17,148.31,214.6,148.77,214.87Z" style="fill:#9a4a4d"></path><path d="M161.85,221.32,150,214.45a1.25,1.25,0,0,1-.55-1V202.75a1.25,1.25,0,0,1,.55-1l27.52-15.88a1.19,1.19,0,0,1,1.1,0l11.9,6.87a1.23,1.23,0,0,1,.56,1v10.74a1.25,1.25,0,0,1-.55,1L163,221.32A1.21,1.21,0,0,1,161.85,221.32Z" style="fill:#37474f"></path><path d="M150.23,202.59l11.35,6.55a1.8,1.8,0,0,0,1.66,0l27-15.56c.46-.26.46-.69,0-1l-11.35-6.55a1.8,1.8,0,0,0-1.66,0l-27,15.56C149.77,201.9,149.77,202.33,150.23,202.59Z" style="fill:#455a64"></path><path d="M162.41,209.34v12.12a1.16,1.16,0,0,1-.56-.14L150,214.45a1.21,1.21,0,0,1-.55-1V202.76a1.19,1.19,0,0,1,.55-1l.23-.14c-.41.26-.39.67,0,.93l11.35,6.55A1.6,1.6,0,0,0,162.41,209.34Z" style="fill:#263238"></path><polygon points="163.19 210.06 163.58 209.83 163.58 220.12 163.19 220.35 163.19 210.06" style="fill:#263238"></polygon><polygon points="164.65 209.22 165.05 208.99 165.04 219.27 164.65 219.5 164.65 209.22" style="fill:#263238"></polygon><polygon points="166.11 208.37 166.51 208.14 166.51 218.43 166.11 218.66 166.11 208.37" style="fill:#263238"></polygon><polygon points="167.57 207.53 167.97 207.29 167.97 217.58 167.57 217.81 167.57 207.53" style="fill:#263238"></polygon><polygon points="169.04 206.68 169.43 206.45 169.43 216.74 169.04 216.97 169.04 206.68" style="fill:#263238"></polygon><polygon points="170.5 205.84 170.9 205.6 170.9 215.89 170.5 216.12 170.5 205.84" style="fill:#263238"></polygon><polygon points="171.96 204.99 172.36 204.76 172.36 215.05 171.96 215.28 171.96 204.99" style="fill:#263238"></polygon><polygon points="173.42 204.15 173.82 203.91 173.82 214.2 173.42 214.43 173.42 204.15" style="fill:#263238"></polygon><polygon points="174.89 203.3 175.28 203.07 175.28 213.36 174.89 213.59 174.89 203.3" style="fill:#263238"></polygon><polygon points="176.35 202.45 176.75 202.22 176.75 212.51 176.35 212.74 176.35 202.45" style="fill:#263238"></polygon><polygon points="177.81 201.61 178.21 201.38 178.21 211.67 177.81 211.9 177.81 201.61" style="fill:#263238"></polygon><polygon points="179.27 200.76 179.67 200.53 179.67 210.82 179.27 211.05 179.27 200.76" style="fill:#263238"></polygon><polygon points="180.74 199.92 181.13 199.69 181.13 209.98 180.74 210.21 180.74 199.92" style="fill:#263238"></polygon><polygon points="182.2 199.07 182.6 198.84 182.6 209.13 182.2 209.36 182.2 199.07" style="fill:#263238"></polygon><polygon points="183.66 198.23 184.06 198 184.06 208.29 183.66 208.52 183.66 198.23" style="fill:#263238"></polygon><polygon points="185.12 197.38 185.52 197.15 185.52 207.44 185.12 207.67 185.12 197.38" style="fill:#263238"></polygon><polygon points="186.59 196.54 186.98 196.31 186.98 206.6 186.59 206.83 186.59 196.54" style="fill:#263238"></polygon><polygon points="188.05 195.69 188.45 195.46 188.45 205.75 188.05 205.98 188.05 195.69" style="fill:#263238"></polygon><polygon points="189.51 194.85 189.91 194.62 189.91 204.91 189.51 205.14 189.51 194.85" style="fill:#263238"></polygon><polygon points="155.79 206.94 155.39 206.71 155.39 217 155.79 217.23 155.79 206.94" style="opacity:0.30000000000000004"></polygon><polygon points="156.6 208.08 161.42 210.86 161.42 210.59 156.6 207.81 156.6 208.08" style="opacity:0.30000000000000004"></polygon><polygon points="156.6 217.29 161.42 220.07 161.42 219.79 156.6 217.01 156.6 217.29" style="opacity:0.30000000000000004"></polygon><polygon points="156.6 211.77 161.42 214.56 161.42 214.28 156.6 211.5 156.6 211.77" style="opacity:0.30000000000000004"></polygon><polygon points="156.6 212.65 161.42 215.43 161.42 215.16 156.6 212.38 156.6 212.65" style="opacity:0.30000000000000004"></polygon><polygon points="156.6 213.53 161.42 216.31 161.42 216.04 156.6 213.26 156.6 213.53" style="opacity:0.30000000000000004"></polygon><polygon points="149.95 204.26 154.77 207.04 154.77 206.76 149.95 203.98 149.95 204.26" style="opacity:0.30000000000000004"></polygon><polygon points="149.95 213.46 154.77 216.24 154.77 215.97 149.95 213.19 149.95 213.46" style="opacity:0.30000000000000004"></polygon><polygon points="149.95 207.95 154.77 210.73 154.77 210.45 149.95 207.67 149.95 207.95" style="opacity:0.30000000000000004"></polygon><polygon points="149.95 208.83 154.77 211.61 154.77 211.33 149.95 208.55 149.95 208.83" style="opacity:0.30000000000000004"></polygon><polygon points="149.95 209.71 154.77 212.49 154.77 212.21 149.95 209.43 149.95 209.71" style="opacity:0.30000000000000004"></polygon><path d="M177.44,230.36l-11.9-6.87a1.22,1.22,0,0,1-.55-1V211.8a1.2,1.2,0,0,1,.56-1L193.06,195a1.21,1.21,0,0,1,1.11,0l11.9,6.87a1.25,1.25,0,0,1,.55,1v10.74a1.25,1.25,0,0,1-.55,1l-27.52,15.88A1.21,1.21,0,0,1,177.44,230.36Z" style="fill:#407BFF"></path><path d="M165.82,211.64l11.35,6.55a1.86,1.86,0,0,0,1.66,0l27-15.57c.46-.26.46-.69,0-1l-11.35-6.55a1.86,1.86,0,0,0-1.66,0l-27,15.57C165.36,210.94,165.36,211.37,165.82,211.64Z" style="fill:#fff;opacity:0.30000000000000004"></path><path d="M178,218.38V230.5a1.1,1.1,0,0,1-.55-.14l-11.91-6.86a1.25,1.25,0,0,1-.55-1V211.8a1.22,1.22,0,0,1,.55-1l.23-.14c-.41.27-.39.68,0,.93l11.35,6.56A1.72,1.72,0,0,0,178,218.38Z" style="opacity:0.1"></path><polygon points="179 219 179.39 218.77 179.39 229.06 179 229.29 179 219" style="opacity:0.1"></polygon><polygon points="180.46 218.16 180.86 217.93 180.86 228.22 180.46 228.45 180.46 218.16" style="opacity:0.1"></polygon><polygon points="181.92 217.31 182.32 217.08 182.32 227.37 181.92 227.6 181.92 217.31" style="opacity:0.1"></polygon><polygon points="183.38 216.47 183.78 216.24 183.78 226.53 183.38 226.76 183.38 216.47" style="opacity:0.1"></polygon><polygon points="184.85 215.62 185.24 215.39 185.24 225.68 184.85 225.91 184.85 215.62" style="opacity:0.1"></polygon><polygon points="186.31 214.78 186.71 214.55 186.71 224.84 186.31 225.07 186.31 214.78" style="opacity:0.1"></polygon><polygon points="187.77 213.93 188.17 213.7 188.17 223.99 187.77 224.22 187.77 213.93" style="opacity:0.1"></polygon><polygon points="189.24 213.09 189.63 212.86 189.63 223.15 189.24 223.38 189.24 213.09" style="opacity:0.1"></polygon><polygon points="190.7 212.24 191.09 212.01 191.09 222.3 190.7 222.53 190.7 212.24" style="opacity:0.1"></polygon><polygon points="192.16 211.4 192.56 211.17 192.56 221.46 192.16 221.69 192.16 211.4" style="opacity:0.1"></polygon><polygon points="193.62 210.55 194.02 210.32 194.02 220.61 193.62 220.84 193.62 210.55" style="opacity:0.1"></polygon><polygon points="195.09 209.71 195.48 209.48 195.48 219.77 195.09 220 195.09 209.71" style="opacity:0.1"></polygon><polygon points="196.55 208.86 196.94 208.63 196.94 218.92 196.55 219.15 196.55 208.86" style="opacity:0.1"></polygon><polygon points="198.01 208.02 198.41 207.79 198.41 218.08 198.01 218.31 198.01 208.02" style="opacity:0.1"></polygon><polygon points="199.47 207.17 199.87 206.94 199.87 217.23 199.47 217.46 199.47 207.17" style="opacity:0.1"></polygon><polygon points="200.94 206.33 201.33 206.1 201.33 216.39 200.94 216.62 200.94 206.33" style="opacity:0.1"></polygon><polygon points="202.4 205.48 202.79 205.25 202.79 215.54 202.4 215.77 202.4 205.48" style="opacity:0.1"></polygon><polygon points="203.86 204.64 204.26 204.41 204.26 214.69 203.86 214.93 203.86 204.64" style="opacity:0.1"></polygon><polygon points="205.32 203.79 205.72 203.56 205.72 213.85 205.32 214.08 205.32 203.79" style="opacity:0.1"></polygon><polygon points="171.6 215.88 171.2 215.65 171.2 225.94 171.6 226.17 171.6 215.88" style="opacity:0.1"></polygon><polygon points="172.41 217.03 177.23 219.81 177.23 219.53 172.41 216.75 172.41 217.03" style="opacity:0.1"></polygon><polygon points="172.41 226.23 177.23 229.01 177.23 228.74 172.41 225.96 172.41 226.23" style="opacity:0.1"></polygon><polygon points="172.41 220.72 177.23 223.5 177.23 223.22 172.41 220.44 172.41 220.72" style="opacity:0.1"></polygon><polygon points="172.41 221.59 177.23 224.38 177.23 224.1 172.41 221.32 172.41 221.59" style="opacity:0.1"></polygon><polygon points="172.41 222.47 177.23 225.25 177.23 224.98 172.41 222.2 172.41 222.47" style="opacity:0.1"></polygon><polygon points="165.76 213.2 170.58 215.98 170.58 215.7 165.76 212.92 165.76 213.2" style="opacity:0.1"></polygon><polygon points="165.76 222.41 170.58 225.19 170.58 224.91 165.76 222.13 165.76 222.41" style="opacity:0.1"></polygon><polygon points="165.76 216.89 170.58 219.67 170.58 219.4 165.76 216.61 165.76 216.89" style="opacity:0.1"></polygon><polygon points="165.76 217.77 170.58 220.55 170.58 220.27 165.76 217.49 165.76 217.77" style="opacity:0.1"></polygon><polygon points="165.76 218.65 170.58 221.43 170.58 221.15 165.76 218.37 165.76 218.65" style="opacity:0.1"></polygon><path d="M193.06,239.36l-11.9-6.87a1.23,1.23,0,0,1-.56-1V220.79a1.23,1.23,0,0,1,.56-1L208.67,204a1.21,1.21,0,0,1,1.11,0l11.9,6.87a1.25,1.25,0,0,1,.55,1v10.74a1.25,1.25,0,0,1-.55,1l-27.51,15.88A1.21,1.21,0,0,1,193.06,239.36Z" style="fill:#37474f"></path><path d="M181.43,220.63l11.35,6.55a1.8,1.8,0,0,0,1.66,0l27-15.56c.46-.27.46-.7,0-1l-11.34-6.55a1.82,1.82,0,0,0-1.67,0l-27,15.56C181,219.94,181,220.37,181.43,220.63Z" style="fill:#455a64"></path><path d="M193.61,227.38v12.11a1.09,1.09,0,0,1-.55-.13l-11.9-6.87a1.23,1.23,0,0,1-.56-1V220.8a1.2,1.2,0,0,1,.56-1l.23-.14c-.41.26-.4.67,0,.93l11.35,6.55A1.62,1.62,0,0,0,193.61,227.38Z" style="fill:#263238"></path><polygon points="194.39 228.1 194.79 227.87 194.79 238.16 194.39 238.39 194.39 228.1" style="fill:#263238"></polygon><polygon points="195.85 227.25 196.25 227.02 196.25 237.31 195.85 237.54 195.85 227.25" style="fill:#263238"></polygon><polygon points="197.31 226.41 197.71 226.18 197.71 236.47 197.31 236.7 197.31 226.41" style="fill:#263238"></polygon><polygon points="198.78 225.56 199.17 225.33 199.17 235.62 198.78 235.85 198.78 225.56" style="fill:#263238"></polygon><polygon points="200.24 224.72 200.64 224.49 200.64 234.78 200.24 235.01 200.24 224.72" style="fill:#263238"></polygon><polygon points="201.7 223.87 202.1 223.64 202.1 233.93 201.7 234.16 201.7 223.87" style="fill:#263238"></polygon><polygon points="203.16 223.03 203.56 222.8 203.56 233.09 203.16 233.32 203.16 223.03" style="fill:#263238"></polygon><polygon points="204.63 222.18 205.03 221.95 205.02 232.24 204.63 232.47 204.63 222.18" style="fill:#263238"></polygon><polygon points="206.09 221.34 206.49 221.11 206.49 231.4 206.09 231.63 206.09 221.34" style="fill:#263238"></polygon><polygon points="207.55 220.49 207.95 220.26 207.95 230.55 207.55 230.78 207.55 220.49" style="fill:#263238"></polygon><polygon points="209.01 219.65 209.41 219.42 209.41 229.71 209.01 229.94 209.01 219.65" style="fill:#263238"></polygon><polygon points="210.48 218.8 210.88 218.57 210.88 228.86 210.48 229.09 210.48 218.8" style="fill:#263238"></polygon><polygon points="211.94 217.96 212.34 217.73 212.34 228.02 211.94 228.25 211.94 217.96" style="fill:#263238"></polygon><polygon points="213.4 217.11 213.8 216.88 213.8 227.17 213.4 227.4 213.4 217.11" style="fill:#263238"></polygon><polygon points="214.87 216.27 215.26 216.04 215.26 226.33 214.87 226.56 214.87 216.27" style="fill:#263238"></polygon><polygon points="216.33 215.42 216.72 215.19 216.72 225.48 216.33 225.71 216.33 215.42" style="fill:#263238"></polygon><polygon points="217.79 214.58 218.19 214.35 218.19 224.64 217.79 224.87 217.79 214.58" style="fill:#263238"></polygon><polygon points="219.25 213.73 219.65 213.5 219.65 223.79 219.25 224.02 219.25 213.73" style="fill:#263238"></polygon><polygon points="220.72 212.89 221.11 212.66 221.11 222.95 220.72 223.18 220.72 212.89" style="fill:#263238"></polygon><polygon points="186.99 224.98 186.59 224.75 186.59 235.04 186.99 235.27 186.99 224.98" style="opacity:0.30000000000000004"></polygon><polygon points="187.8 226.12 192.62 228.9 192.62 228.63 187.8 225.85 187.8 226.12" style="opacity:0.30000000000000004"></polygon><polygon points="187.8 235.33 192.62 238.11 192.62 237.83 187.8 235.05 187.8 235.33" style="opacity:0.30000000000000004"></polygon><polygon points="187.8 229.81 192.62 232.59 192.62 232.32 187.8 229.54 187.8 229.81" style="opacity:0.30000000000000004"></polygon><polygon points="187.8 230.69 192.62 233.47 192.62 233.2 187.8 230.42 187.8 230.69" style="opacity:0.30000000000000004"></polygon><polygon points="187.8 231.57 192.62 234.35 192.62 234.08 187.8 231.29 187.8 231.57" style="opacity:0.30000000000000004"></polygon><polygon points="181.16 222.3 185.97 225.08 185.97 224.8 181.16 222.02 181.16 222.3" style="opacity:0.30000000000000004"></polygon><polygon points="181.16 231.5 185.97 234.28 185.97 234.01 181.16 231.22 181.16 231.5" style="opacity:0.30000000000000004"></polygon><polygon points="181.16 225.99 185.97 228.77 185.97 228.49 181.16 225.71 181.16 225.99" style="opacity:0.30000000000000004"></polygon><polygon points="181.16 226.87 185.97 229.65 185.97 229.37 181.16 226.59 181.16 226.87" style="opacity:0.30000000000000004"></polygon><polygon points="181.16 227.74 185.97 230.53 185.97 230.25 181.16 227.47 181.16 227.74" style="opacity:0.30000000000000004"></polygon><path d="M128,240.85,116.11,234a1.23,1.23,0,0,1-.56-1V222.28a1.23,1.23,0,0,1,.56-1l27.51-15.88a1.21,1.21,0,0,1,1.11,0l11.9,6.87a1.22,1.22,0,0,1,.55,1V224a1.23,1.23,0,0,1-.56,1l-27.51,15.88A1.21,1.21,0,0,1,128,240.85Z" style="fill:#407BFF"></path><path d="M116.39,222.12l11.34,6.55a1.82,1.82,0,0,0,1.67,0l26.95-15.56c.46-.27.46-.7,0-1L145,205.6a1.82,1.82,0,0,0-1.67,0l-26.95,15.56C115.93,221.43,115.93,221.86,116.39,222.12Z" style="fill:#fff;opacity:0.30000000000000004"></path><path d="M128.57,228.87V241a1.1,1.1,0,0,1-.56-.13L116.11,234a1.22,1.22,0,0,1-.55-1V222.29a1.19,1.19,0,0,1,.55-1l.23-.14c-.41.26-.4.67,0,.93l11.35,6.55A1.63,1.63,0,0,0,128.57,228.87Z" style="opacity:0.1"></path><polygon points="129.56 229.49 129.96 229.26 129.96 239.55 129.56 239.78 129.56 229.49" style="opacity:0.1"></polygon><polygon points="131.02 228.65 131.42 228.41 131.42 238.7 131.02 238.93 131.02 228.65" style="opacity:0.1"></polygon><polygon points="132.49 227.8 132.88 227.57 132.88 237.86 132.49 238.09 132.49 227.8" style="opacity:0.1"></polygon><polygon points="133.95 226.95 134.35 226.72 134.35 237.01 133.95 237.24 133.95 226.95" style="opacity:0.1"></polygon><polygon points="135.41 226.11 135.81 225.88 135.81 236.17 135.41 236.4 135.41 226.11" style="opacity:0.1"></polygon><polygon points="136.87 225.26 137.27 225.03 137.27 235.32 136.87 235.55 136.87 225.26" style="opacity:0.1"></polygon><polygon points="138.34 224.42 138.73 224.19 138.73 234.48 138.34 234.71 138.34 224.42" style="opacity:0.1"></polygon><polygon points="139.8 223.57 140.2 223.34 140.2 233.63 139.8 233.86 139.8 223.57" style="opacity:0.1"></polygon><polygon points="141.26 222.73 141.66 222.5 141.66 232.79 141.26 233.02 141.26 222.73" style="opacity:0.1"></polygon><polygon points="142.72 221.88 143.12 221.65 143.12 231.94 142.72 232.17 142.72 221.88" style="opacity:0.1"></polygon><polygon points="144.19 221.04 144.58 220.81 144.58 231.1 144.19 231.33 144.19 221.04" style="opacity:0.1"></polygon><polygon points="145.65 220.19 146.05 219.96 146.05 230.25 145.65 230.48 145.65 220.19" style="opacity:0.1"></polygon><polygon points="147.11 219.35 147.51 219.12 147.51 229.41 147.11 229.64 147.11 219.35" style="opacity:0.1"></polygon><polygon points="148.57 218.5 148.97 218.27 148.97 228.56 148.57 228.79 148.57 218.5" style="opacity:0.1"></polygon><polygon points="150.04 217.66 150.43 217.43 150.43 227.72 150.04 227.95 150.04 217.66" style="opacity:0.1"></polygon><polygon points="151.5 216.81 151.9 216.58 151.9 226.87 151.5 227.1 151.5 216.81" style="opacity:0.1"></polygon><polygon points="152.96 215.97 153.36 215.74 153.36 226.03 152.96 226.26 152.96 215.97" style="opacity:0.1"></polygon><polygon points="154.43 215.12 154.82 214.89 154.82 225.18 154.43 225.41 154.43 215.12" style="opacity:0.1"></polygon><polygon points="155.89 214.28 156.28 214.05 156.28 224.34 155.89 224.57 155.89 214.28" style="opacity:0.1"></polygon><polygon points="122.16 226.37 121.76 226.14 121.77 236.43 122.16 236.66 122.16 226.37" style="opacity:0.1"></polygon><polygon points="122.97 227.51 127.79 230.29 127.79 230.02 122.97 227.24 122.97 227.51" style="opacity:0.1"></polygon><polygon points="122.97 236.72 127.79 239.5 127.79 239.22 122.97 236.44 122.97 236.72" style="opacity:0.1"></polygon><polygon points="122.97 231.2 127.79 233.99 127.79 233.71 122.97 230.93 122.97 231.2" style="opacity:0.1"></polygon><polygon points="122.97 232.08 127.79 234.86 127.79 234.59 122.97 231.81 122.97 232.08" style="opacity:0.1"></polygon><polygon points="122.97 232.96 127.79 235.74 127.79 235.47 122.97 232.69 122.97 232.96" style="opacity:0.1"></polygon><polygon points="116.33 223.69 121.14 226.47 121.14 226.19 116.33 223.41 116.33 223.69" style="opacity:0.1"></polygon><polygon points="116.33 232.89 121.14 235.67 121.14 235.4 116.33 232.62 116.33 232.89" style="opacity:0.1"></polygon><polygon points="116.33 227.38 121.14 230.16 121.14 229.88 116.33 227.1 116.33 227.38" style="opacity:0.1"></polygon><polygon points="116.33 228.26 121.14 231.04 121.14 230.76 116.33 227.98 116.33 228.26" style="opacity:0.1"></polygon><polygon points="116.33 229.13 121.14 231.92 121.14 231.64 116.33 228.86 116.33 229.13" style="opacity:0.1"></polygon><path d="M143.62,249.87,131.72,243a1.22,1.22,0,0,1-.55-1V231.3a1.22,1.22,0,0,1,.55-1l27.51-15.88a1.21,1.21,0,0,1,1.11,0l11.9,6.87a1.23,1.23,0,0,1,.56,1V233a1.23,1.23,0,0,1-.56,1l-27.51,15.88A1.21,1.21,0,0,1,143.62,249.87Z" style="fill:#37474f"></path><path d="M132,231.14l11.34,6.55a1.82,1.82,0,0,0,1.67,0l27-15.56c.46-.27.46-.7,0-1l-11.34-6.55a1.82,1.82,0,0,0-1.67,0L132,230.18C131.54,230.45,131.54,230.88,132,231.14Z" style="fill:#455a64"></path><path d="M144.18,237.89V250a1.1,1.1,0,0,1-.56-.13L131.72,243a1.22,1.22,0,0,1-.55-1V231.31a1.19,1.19,0,0,1,.55-1l.23-.14c-.41.26-.4.67,0,.93l11.36,6.55A1.6,1.6,0,0,0,144.18,237.89Z" style="fill:#263238"></path><polygon points="144.95 238.61 145.35 238.38 145.35 248.67 144.95 248.9 144.95 238.61" style="fill:#263238"></polygon><polygon points="146.41 237.76 146.81 237.53 146.81 247.82 146.42 248.05 146.41 237.76" style="fill:#263238"></polygon><polygon points="147.88 236.92 148.28 236.69 148.28 246.98 147.88 247.21 147.88 236.92" style="fill:#263238"></polygon><polygon points="149.34 236.07 149.74 235.84 149.74 246.13 149.34 246.36 149.34 236.07" style="fill:#263238"></polygon><polygon points="150.8 235.23 151.2 235 151.2 245.29 150.8 245.52 150.8 235.23" style="fill:#263238"></polygon><polygon points="152.27 234.38 152.66 234.15 152.66 244.44 152.27 244.67 152.27 234.38" style="fill:#263238"></polygon><polygon points="153.73 233.54 154.13 233.31 154.13 243.6 153.73 243.83 153.73 233.54" style="fill:#263238"></polygon><polygon points="155.19 232.69 155.59 232.46 155.59 242.75 155.19 242.98 155.19 232.69" style="fill:#263238"></polygon><polygon points="156.65 231.85 157.05 231.62 157.05 241.91 156.65 242.14 156.65 231.85" style="fill:#263238"></polygon><polygon points="158.12 231 158.51 230.77 158.51 241.06 158.12 241.29 158.12 231" style="fill:#263238"></polygon><polygon points="159.58 230.16 159.98 229.93 159.98 240.22 159.58 240.45 159.58 230.16" style="fill:#263238"></polygon><polygon points="161.04 229.31 161.44 229.08 161.44 239.37 161.04 239.6 161.04 229.31" style="fill:#263238"></polygon><polygon points="162.5 228.47 162.9 228.24 162.9 238.53 162.5 238.76 162.5 228.47" style="fill:#263238"></polygon><polygon points="163.97 227.62 164.36 227.39 164.36 237.68 163.97 237.91 163.97 227.62" style="fill:#263238"></polygon><polygon points="165.43 226.78 165.83 226.55 165.83 236.84 165.43 237.07 165.43 226.78" style="fill:#263238"></polygon><polygon points="166.89 225.93 167.29 225.7 167.29 235.99 166.89 236.22 166.89 225.93" style="fill:#263238"></polygon><polygon points="168.35 225.09 168.75 224.86 168.75 235.15 168.35 235.38 168.35 225.09" style="fill:#263238"></polygon><polygon points="169.82 224.24 170.21 224.01 170.21 234.3 169.82 234.53 169.82 224.24" style="fill:#263238"></polygon><polygon points="171.28 223.4 171.68 223.17 171.68 233.46 171.28 233.69 171.28 223.4" style="fill:#263238"></polygon><polygon points="137.55 235.49 137.16 235.26 137.16 245.55 137.55 245.78 137.55 235.49" style="opacity:0.30000000000000004"></polygon><polygon points="138.37 236.63 143.18 239.41 143.18 239.14 138.37 236.36 138.37 236.63" style="opacity:0.30000000000000004"></polygon><polygon points="138.37 245.84 143.18 248.62 143.18 248.34 138.37 245.56 138.37 245.84" style="opacity:0.30000000000000004"></polygon><polygon points="138.37 240.32 143.18 243.1 143.18 242.83 138.37 240.05 138.37 240.32" style="opacity:0.30000000000000004"></polygon><polygon points="138.37 241.2 143.18 243.98 143.18 243.71 138.37 240.93 138.37 241.2" style="opacity:0.30000000000000004"></polygon><polygon points="138.37 242.08 143.18 244.86 143.18 244.59 138.37 241.81 138.37 242.08" style="opacity:0.30000000000000004"></polygon><polygon points="131.72 232.81 136.54 235.59 136.54 235.31 131.72 232.53 131.72 232.81" style="opacity:0.30000000000000004"></polygon><polygon points="131.72 242.01 136.54 244.79 136.54 244.52 131.72 241.74 131.72 242.01" style="opacity:0.30000000000000004"></polygon><polygon points="131.72 236.5 136.54 239.28 136.54 239 131.72 236.22 131.72 236.5" style="opacity:0.30000000000000004"></polygon><polygon points="131.72 237.38 136.54 240.16 136.54 239.88 131.72 237.1 131.72 237.38" style="opacity:0.30000000000000004"></polygon><polygon points="131.72 238.25 136.54 241.03 136.54 240.76 131.72 237.98 131.72 238.25" style="opacity:0.30000000000000004"></polygon><path d="M159.23,258.88,147.33,252a1.22,1.22,0,0,1-.55-1V240.32a1.22,1.22,0,0,1,.55-1l27.51-15.89a1.21,1.21,0,0,1,1.11,0l11.9,6.87a1.23,1.23,0,0,1,.56,1V242a1.23,1.23,0,0,1-.56,1l-27.51,15.88A1.21,1.21,0,0,1,159.23,258.88Z" style="fill:#407BFF"></path><path d="M147.61,240.16,159,246.71a1.89,1.89,0,0,0,1.67,0l27-15.57c.46-.26.46-.69,0-1l-11.35-6.55a1.86,1.86,0,0,0-1.66,0l-27,15.57C147.15,239.46,147.15,239.89,147.61,240.16Z" style="fill:#fff;opacity:0.30000000000000004"></path><path d="M159.79,246.9V259a1.16,1.16,0,0,1-.56-.14L147.33,252a1.22,1.22,0,0,1-.55-1V240.32a1.19,1.19,0,0,1,.55-1l.23-.14a.5.5,0,0,0,.05.93L159,246.71A1.7,1.7,0,0,0,159.79,246.9Z" style="opacity:0.1"></path><polygon points="160.78 247.52 161.18 247.29 161.18 257.58 160.78 257.81 160.78 247.52" style="opacity:0.1"></polygon><polygon points="162.25 246.68 162.64 246.45 162.64 256.74 162.25 256.97 162.25 246.68" style="opacity:0.1"></polygon><polygon points="163.71 245.83 164.11 245.6 164.11 255.89 163.71 256.12 163.71 245.83" style="opacity:0.1"></polygon><polygon points="165.17 244.99 165.57 244.76 165.57 255.05 165.17 255.28 165.17 244.99" style="opacity:0.1"></polygon><polygon points="166.63 244.14 167.03 243.91 167.03 254.2 166.63 254.43 166.63 244.14" style="opacity:0.1"></polygon><polygon points="168.1 243.3 168.49 243.07 168.49 253.36 168.1 253.59 168.1 243.3" style="opacity:0.1"></polygon><polygon points="169.56 242.45 169.96 242.22 169.96 252.51 169.56 252.74 169.56 242.45" style="opacity:0.1"></polygon><polygon points="171.02 241.61 171.42 241.38 171.42 251.67 171.02 251.9 171.02 241.61" style="opacity:0.1"></polygon><polygon points="172.49 240.76 172.88 240.53 172.88 250.82 172.49 251.05 172.49 240.76" style="opacity:0.1"></polygon><polygon points="173.95 239.92 174.34 239.69 174.34 249.98 173.95 250.21 173.95 239.92" style="opacity:0.1"></polygon><polygon points="175.41 239.07 175.81 238.84 175.81 249.13 175.41 249.36 175.41 239.07" style="opacity:0.1"></polygon><polygon points="176.87 238.23 177.27 238 177.27 248.29 176.87 248.51 176.87 238.23" style="opacity:0.1"></polygon><polygon points="178.34 237.38 178.73 237.15 178.73 247.44 178.34 247.67 178.34 237.38" style="opacity:0.1"></polygon><polygon points="179.8 236.54 180.19 236.31 180.19 246.6 179.8 246.82 179.8 236.54" style="opacity:0.1"></polygon><polygon points="181.26 235.69 181.66 235.46 181.66 245.75 181.26 245.98 181.26 235.69" style="opacity:0.1"></polygon><polygon points="182.72 234.85 183.12 234.62 183.12 244.91 182.72 245.13 182.72 234.85" style="opacity:0.1"></polygon><polygon points="184.19 234 184.58 233.77 184.58 244.06 184.19 244.29 184.19 234" style="opacity:0.1"></polygon><polygon points="185.65 233.16 186.04 232.93 186.04 243.22 185.65 243.44 185.65 233.16" style="opacity:0.1"></polygon><polygon points="187.11 232.31 187.51 232.08 187.51 242.37 187.11 242.6 187.11 232.31" style="opacity:0.1"></polygon><polygon points="153.38 244.4 152.99 244.17 152.99 254.46 153.38 254.69 153.38 244.4" style="opacity:0.1"></polygon><polygon points="154.2 245.55 159.01 248.33 159.01 248.05 154.2 245.27 154.2 245.55" style="opacity:0.1"></polygon><polygon points="154.2 254.75 159.01 257.53 159.01 257.26 154.2 254.47 154.2 254.75" style="opacity:0.1"></polygon><polygon points="154.2 249.24 159.01 252.02 159.01 251.74 154.2 248.96 154.2 249.24" style="opacity:0.1"></polygon><polygon points="154.2 250.12 159.01 252.9 159.01 252.62 154.2 249.84 154.2 250.12" style="opacity:0.1"></polygon><polygon points="154.2 250.99 159.01 253.78 159.01 253.5 154.2 250.72 154.2 250.99" style="opacity:0.1"></polygon><polygon points="147.55 241.72 152.37 244.5 152.37 244.22 147.55 241.44 147.55 241.72" style="opacity:0.1"></polygon><polygon points="147.55 250.93 152.37 253.71 152.37 253.43 147.55 250.65 147.55 250.93" style="opacity:0.1"></polygon><polygon points="147.55 245.41 152.37 248.19 152.37 247.91 147.55 245.13 147.55 245.41" style="opacity:0.1"></polygon><polygon points="147.55 246.29 152.37 249.07 152.37 248.79 147.55 246.01 147.55 246.29" style="opacity:0.1"></polygon><polygon points="147.55 247.17 152.37 249.95 152.37 249.67 147.55 246.89 147.55 247.17" style="opacity:0.1"></polygon><polygon points="252.76 205.57 203.32 177.03 203.32 157.5 252.76 186.04 252.76 205.57" style="fill:#e6e6e6"></polygon><polygon points="260.56 201.07 260.56 181.54 252.76 186.04 252.76 205.57 260.56 201.07" style="fill:#e0e0e0"></polygon><polygon points="260.56 181.54 211.13 153 203.32 157.5 252.76 186.04 260.56 181.54" style="fill:#f5f5f5"></polygon><polygon points="209.91 166.52 215.12 169.52 215.12 172.53 209.91 169.52 209.91 166.52" style="fill:#407BFF"></polygon><polygon points="209.91 166.52 210.21 166.69 210.21 169.35 209.91 169.52 209.91 166.52" style="opacity:0.1"></polygon><polygon points="215.12 172.53 209.91 169.52 210.21 169.35 215.12 172.18 215.12 172.53" style="opacity:0.2"></polygon><polygon points="217.72 171.02 222.92 174.03 222.92 177.03 217.72 174.03 217.72 171.02" style="fill:#407BFF"></polygon><polygon points="217.72 171.02 218.02 171.19 218.02 173.85 217.72 174.03 217.72 171.02" style="opacity:0.1"></polygon><polygon points="222.92 177.03 217.72 174.03 218.02 173.85 222.92 176.69 222.92 177.03" style="opacity:0.2"></polygon><polygon points="225.53 175.53 230.73 178.53 230.73 181.54 225.53 178.53 225.53 175.53" style="fill:#407BFF"></polygon><polygon points="225.53 175.53 225.82 175.7 225.82 178.36 225.53 178.53 225.53 175.53" style="opacity:0.1"></polygon><polygon points="230.73 181.54 225.53 178.53 225.82 178.36 230.73 181.19 230.73 181.54" style="opacity:0.2"></polygon><polygon points="233.33 180.03 238.53 183.04 238.53 186.04 233.33 183.04 233.33 180.03" style="fill:#407BFF"></polygon><polygon points="233.33 180.03 233.63 180.21 233.63 182.87 233.33 183.04 233.33 180.03" style="opacity:0.1"></polygon><polygon points="238.53 186.04 233.33 183.04 233.63 182.87 238.53 185.7 238.53 186.04" style="opacity:0.2"></polygon><polygon points="241.14 184.54 246.34 187.55 246.34 190.55 241.14 187.55 241.14 184.54" style="fill:#407BFF"></polygon><polygon points="241.14 184.54 241.44 184.72 241.44 187.37 241.14 187.55 241.14 184.54" style="opacity:0.1"></polygon><polygon points="246.34 190.55 241.14 187.55 241.44 187.37 246.34 190.21 246.34 190.55" style="opacity:0.2"></polygon><polygon points="252.76 186.04 252.76 174.03 260.56 169.52 260.56 181.54 252.76 186.04" style="fill:#e0e0e0"></polygon><polygon points="252.76 174.03 242.35 168.02 242.35 180.03 252.76 186.04 252.76 174.03" style="fill:#e6e6e6"></polygon><polygon points="260.56 169.52 250.16 163.51 242.35 168.02 252.76 174.03 260.56 169.52" style="fill:#f5f5f5"></polygon><polygon points="244.95 172.52 250.16 175.53 250.16 178.53 244.95 175.53 244.95 172.52" style="fill:#407BFF"></polygon><polygon points="244.95 172.52 245.25 172.7 245.25 175.36 244.95 175.53 244.95 172.52" style="opacity:0.1"></polygon><polygon points="250.16 178.53 244.95 175.53 245.25 175.36 250.16 178.19 250.16 178.53" style="opacity:0.2"></polygon><path d="M258,168.73v-7.24h-3.68v7.24a.92.92,0,0,0,.54.75,2.84,2.84,0,0,0,2.6,0A.92.92,0,0,0,258,168.73Z" style="fill:#37474f"></path><path d="M254.82,160.74a2.9,2.9,0,0,1,2.6,0,.79.79,0,0,1,0,1.5,2.84,2.84,0,0,1-2.6,0A.79.79,0,0,1,254.82,160.74Z" style="fill:#455a64"></path><polygon points="239.75 210.03 239.75 201.02 200.72 178.48 200.72 187.5 239.75 210.03" style="fill:#f0f0f0"></polygon><polygon points="239.75 210.03 247.56 205.52 247.56 196.51 239.75 201.02 239.75 210.03" style="fill:#e0e0e0"></polygon><polygon points="247.56 196.51 208.53 173.98 200.72 178.48 239.75 201.02 247.56 196.51" style="fill:#fafafa"></polygon><polygon points="205.92 184.49 211.13 187.5 211.13 190.5 205.92 187.5 205.92 184.49" style="fill:#407BFF"></polygon><polygon points="205.92 184.49 206.22 184.66 206.22 187.32 205.92 187.5 205.92 184.49" style="opacity:0.1"></polygon><polygon points="211.13 190.5 205.92 187.5 206.22 187.32 211.13 190.15 211.13 190.5" style="opacity:0.2"></polygon><polygon points="213.73 189 218.93 192 218.93 195.01 213.73 192 213.73 189" style="fill:#407BFF"></polygon><polygon points="213.73 189 214.03 189.17 214.03 191.83 213.73 192 213.73 189" style="opacity:0.1"></polygon><polygon points="218.93 195.01 213.73 192 214.03 191.83 218.93 194.66 218.93 195.01" style="opacity:0.2"></polygon><polygon points="221.53 193.5 226.74 196.51 226.74 199.51 221.53 196.51 221.53 193.5" style="fill:#407BFF"></polygon><polygon points="221.53 193.5 221.83 193.68 221.83 196.34 221.53 196.51 221.53 193.5" style="opacity:0.1"></polygon><polygon points="226.74 199.51 221.53 196.51 221.83 196.34 226.74 199.17 226.74 199.51" style="opacity:0.2"></polygon><polygon points="229.34 198.01 234.55 201.02 234.55 204.02 229.34 201.02 229.34 198.01" style="fill:#407BFF"></polygon><polygon points="229.34 198.01 229.64 198.18 229.64 200.84 229.34 201.02 229.34 198.01" style="opacity:0.1"></polygon><polygon points="234.55 204.02 229.34 201.02 229.64 200.84 234.55 203.68 234.55 204.02" style="opacity:0.2"></polygon></g><g id="freepik--Birds--inject-218"><path d="M368.15,105.93A12.76,12.76,0,0,0,356.73,113a1.38,1.38,0,0,1-2.48,0,12.76,12.76,0,0,0-24.11,4.35,14.83,14.83,0,0,1,24.47,1.32,1,1,0,0,0,1.76,0,14.83,14.83,0,0,1,24.47-1.32A12.75,12.75,0,0,0,368.15,105.93Z" style="fill:#e0e0e0"></path><path d="M400.59,85.94a7.57,7.57,0,0,0-6.77,4.19.82.82,0,0,1-1.48,0A7.57,7.57,0,0,0,378,92.71a8.79,8.79,0,0,1,14.19.29,1,1,0,0,0,1.7,0,8.8,8.8,0,0,1,14.2-.29A7.58,7.58,0,0,0,400.59,85.94Z" style="fill:#e0e0e0"></path></g></svg>